<svg width="30" height="30" viewBox="0 0 30 30" fill="none" xmlns="http://www.w3.org/2000/svg">
<g clip-path="url(#clip0_4_100)">
<path d="M21.4282 0.000488281H8.57149C7.39082 0.000488281 6.42871 0.962597 6.42871 2.14327V13.9286C6.42871 14.2843 6.60656 14.6164 6.90012 14.8157C7.08012 14.9378 7.28797 15 7.5001 15C7.6351 15 7.77009 14.9742 7.89866 14.9228L12.8099 12.9579L16.6648 14.8842C16.9369 15.0192 17.2562 15.0321 17.5412 14.9207L22.8981 12.7779C23.3053 12.6172 23.571 12.2251 23.571 11.7858V2.14327C23.571 0.962597 22.611 0.000488281 21.4282 0.000488281ZM21.4282 11.0615L17.1898 12.7543L13.337 10.828C13.1849 10.753 13.022 10.7144 12.8571 10.7144C12.7221 10.7144 12.5871 10.7401 12.4585 10.7915L8.57149 12.3472V4.28605H21.4282V11.0615Z" fill="#FF005C"/>
<path d="M23.0996 15.1843C22.806 14.985 22.431 14.9443 22.101 15.0771L17.1898 17.0399L13.337 15.1136C13.0649 14.9786 12.7435 14.9636 12.4585 15.0771L7.10154 17.2199C6.69656 17.3806 6.42871 17.777 6.42871 18.2142V27.8567C6.42871 29.0395 7.39082 29.9995 8.57149 29.9995H21.4282C22.611 29.9995 23.571 29.0395 23.571 27.8567V16.0714C23.571 15.7157 23.3953 15.3835 23.0996 15.1843ZM21.4282 25.7139H8.57149V18.9406L12.8078 17.2456L16.6626 19.172C16.9348 19.307 17.254 19.3241 17.539 19.2084L21.4282 17.6528V25.7139Z" fill="#FF005C"/>
<path d="M3.21514 12.8572H1.07237C0.480959 12.8572 0.000976562 13.3372 0.000976562 13.9286C0.000976562 14.52 0.480959 15 1.07237 15H3.21514C3.80655 15 4.28653 14.52 4.28653 13.9286C4.28653 13.3372 3.80655 12.8572 3.21514 12.8572Z" fill="#FF005C"/>
<path d="M3.97306 8.88653L1.83028 6.7416C1.41244 6.32376 0.733177 6.32376 0.315335 6.7416C-0.102507 7.15945 -0.102507 7.83871 0.315335 8.25655L2.45811 10.3993C2.66596 10.6093 2.94024 10.7143 3.21452 10.7143C3.48879 10.7143 3.76307 10.6093 3.97306 10.4015C4.3909 9.98363 4.3909 9.30437 3.97306 8.88653Z" fill="#FF005C"/>
<path d="M3.97325 17.4578C3.55541 17.0399 2.87615 17.0378 2.45616 17.4556L0.313382 19.5984C-0.104461 20.0162 -0.104461 20.6955 0.313382 21.1133C0.523374 21.3233 0.79765 21.4283 1.07193 21.4283C1.3462 21.4283 1.62048 21.3233 1.83047 21.1155L3.97325 18.9727C4.39109 18.5549 4.39109 17.8756 3.97325 17.4578Z" fill="#FF005C"/>
<path d="M28.928 12.8572H26.7853C26.1939 12.8572 25.7139 13.3372 25.7139 13.9286C25.7139 14.52 26.1939 15 26.7853 15H28.928C29.5194 15 29.9994 14.52 29.9994 13.9286C29.9994 13.3372 29.5194 12.8572 28.928 12.8572Z" fill="#FF005C"/>
<path d="M29.6869 6.7438C29.2691 6.32596 28.5898 6.32596 28.172 6.7438L26.0292 8.88658C25.6114 9.30443 25.6114 9.98369 26.0292 10.4015C26.2371 10.6094 26.5113 10.7144 26.7856 10.7144C27.0599 10.7144 27.3342 10.6094 27.5442 10.4015L29.6869 8.25875C30.1048 7.84091 30.1048 7.16164 29.6869 6.7438Z" fill="#FF005C"/>
<path d="M29.6869 19.6006L27.5442 17.4557C27.1263 17.0379 26.447 17.0379 26.0292 17.4557C25.6114 17.8736 25.6114 18.5528 26.0292 18.9706L28.172 21.1134C28.3798 21.3234 28.6541 21.4284 28.9284 21.4284C29.2027 21.4284 29.4769 21.3234 29.6869 21.1156C30.1048 20.6977 30.1048 20.0185 29.6869 19.6006Z" fill="#FF005C"/>
</g>
<defs>
<clipPath id="clip0_4_100">
<rect width="30" height="30" fill="white"/>
</clipPath>
</defs>
</svg>
