<svg width="30" height="30" viewBox="0 0 30 30" fill="none" xmlns="http://www.w3.org/2000/svg">
<g clip-path="url(#clip0_4_175)">
<path d="M14.9939 21.2285C13.56 21.2285 12.3936 22.3912 12.3936 23.8196C12.3936 25.2485 13.56 26.4116 14.9939 26.4116C16.4282 26.4116 17.5947 25.2485 17.5947 23.8196C17.5947 22.3912 16.428 21.2285 14.9939 21.2285Z" fill="#FF005C"/>
<path d="M21.3378 17.6979C19.6449 16.006 17.3914 15.0737 14.9934 15.0737C12.6046 15.0737 10.3573 15.9998 8.66484 17.6811C7.98128 18.3614 7.98009 19.4697 8.662 20.1511C8.99325 20.4828 9.43429 20.665 9.90372 20.665C10.371 20.665 10.8104 20.4838 11.1412 20.1549C12.1711 19.1313 13.5392 18.5675 14.9934 18.5675C16.453 18.5675 17.8249 19.1349 18.8555 20.1646C19.1868 20.4954 19.6276 20.678 20.0965 20.678C20.5643 20.678 21.0035 20.4968 21.3345 20.1679C22.019 19.4876 22.0202 18.3798 21.3378 17.6979Z" fill="#FF005C"/>
<path d="M29.4879 9.57496C25.6175 5.71406 20.4696 3.58838 14.9936 3.58838C9.52487 3.58838 4.38221 5.70909 0.512965 9.56083C-0.170594 10.2411 -0.171067 11.3493 0.512019 12.0308C0.843033 12.3608 1.28336 12.5423 1.75184 12.5423C2.22009 12.5423 2.65994 12.3615 2.99096 12.0317C6.19817 8.83941 10.4607 7.08094 14.9936 7.08094C19.5331 7.08094 23.7999 8.84296 27.0078 12.0438C27.3388 12.3741 27.7799 12.5563 28.2481 12.5563C28.7161 12.5563 29.156 12.3746 29.4867 12.0452C30.1705 11.3644 30.1712 10.2557 29.4879 9.57496Z" fill="#FF005C"/>
<path d="M25.3096 13.7383C22.5546 10.9897 18.8909 9.47607 14.9935 9.47607C11.1032 9.47607 7.44505 10.9849 4.69236 13.7239C4.36087 14.0535 4.17844 14.4919 4.17773 14.9588C4.17773 15.4251 4.35945 15.864 4.69046 16.1941C5.02148 16.5244 5.46204 16.7066 5.93052 16.7066C6.3983 16.7066 6.83815 16.5249 7.16964 16.196C9.26077 14.1155 12.0395 12.9694 14.9935 12.9694C17.9537 12.9694 20.7362 14.1195 22.8288 16.2071C23.1603 16.5379 23.6006 16.7201 24.0693 16.7201C24.5373 16.7201 24.9774 16.5383 25.308 16.209C25.639 15.8794 25.8219 15.441 25.8221 14.9741C25.8226 14.5073 25.6404 14.0689 25.3096 13.7383Z" fill="#FF005C"/>
</g>
<defs>
<clipPath id="clip0_4_175">
<rect width="30" height="30" fill="white"/>
</clipPath>
</defs>
</svg>
