<svg width="30" height="30" viewBox="0 0 30 30" fill="none" xmlns="http://www.w3.org/2000/svg">
<path d="M29.3059 18.945L26.141 16.4625C26.2009 15.9824 26.2459 15.495 26.2459 15C26.2459 14.505 26.2009 14.0175 26.141 13.5375L29.3135 11.0549C29.5984 10.8299 29.681 10.4249 29.4935 10.095L26.4934 4.89747C26.3059 4.57495 25.916 4.43995 25.5785 4.57495L21.8435 6.08245C21.0709 5.48992 20.2235 4.98747 19.3085 4.60497L18.746 0.629999C18.6784 0.277523 18.3709 0 17.996 0H11.996C11.621 0 11.3135 0.277523 11.2535 0.629999L10.691 4.60497C9.77602 4.98747 8.92848 5.48247 8.15603 6.08245L4.42103 4.57495C4.08353 4.44747 3.69351 4.57495 3.50605 4.89747L0.505961 10.095C0.318438 10.4175 0.400985 10.8225 0.685961 11.0549L3.85094 13.5375C3.79096 14.0175 3.74596 14.505 3.74596 15C3.74596 15.495 3.79096 15.9824 3.85094 16.4625L0.685961 18.945C0.400985 19.17 0.318438 19.575 0.505961 19.905L3.50598 25.1025C3.69351 25.425 4.08346 25.56 4.42096 25.425L8.15595 23.9175C8.92848 24.51 9.77595 25.0125 10.6909 25.395L11.2534 29.3699C11.3134 29.7224 11.621 29.9999 11.9959 29.9999H17.9959C18.3709 29.9999 18.6784 29.7224 18.7384 29.3699L19.3009 25.395C20.2159 25.0125 21.0634 24.5175 21.8359 23.9175L25.5709 25.425C25.9084 25.5525 26.2984 25.425 26.4858 25.1025L29.4859 19.905C29.6735 19.5825 29.5909 19.1775 29.3059 18.945ZM14.9959 20.25C12.0935 20.25 9.74593 17.9025 9.74593 15C9.74593 12.0975 12.0935 9.75002 14.9959 9.75002C17.8984 9.75002 20.246 12.0975 20.246 15C20.246 17.9025 17.8984 20.25 14.9959 20.25Z" fill="#FF005C"/>
</svg>
