<svg width="40" height="40" viewBox="0 0 40 40" fill="none" xmlns="http://www.w3.org/2000/svg">
<g clip-path="url(#clip0_4_70)">
<circle cx="20" cy="20" r="20" fill="#FF005C"/>
<path d="M30.0737 14.1776C30.045 13.5462 30.045 12.9435 30.045 12.3408C30.045 11.8529 29.6719 11.4798 29.184 11.4798C25.5966 11.4798 22.8701 10.4466 20.6029 8.23677C20.2585 7.92108 19.7419 7.92108 19.3975 8.23677C17.1302 10.4466 14.4038 11.4798 10.8163 11.4798C10.3284 11.4798 9.95535 11.8529 9.95535 12.3408C9.95535 12.9435 9.95535 13.5462 9.92665 14.1776C9.81185 20.2045 9.63965 28.47 19.7132 31.9426L20.0002 32L20.2872 31.9426C30.332 28.47 30.1885 20.2332 30.0737 14.1776ZM19.3114 22.5291C19.1392 22.6726 18.9383 22.7587 18.7087 22.7587H18.68C18.4504 22.7587 18.2208 22.6439 18.0773 22.4717L15.4083 19.5157L16.6997 18.3677L18.7948 20.6924L23.4441 16.2726L24.6208 17.5354L19.3114 22.5291Z" fill="white"/>
</g>
<defs>
<clipPath id="clip0_4_70">
<rect width="40" height="40" fill="white"/>
</clipPath>
</defs>
</svg>
