<svg width="24" height="24" viewBox="0 0 24 24" fill="none" xmlns="http://www.w3.org/2000/svg">
<path fill-rule="evenodd" clip-rule="evenodd" d="M11.301 0.0397341C9.88761 0.125707 8.43865 0.506789 7.17089 1.12594C4.28324 2.53623 2.08395 5.0633 1.07242 8.13336C-0.577827 13.1422 1.14179 18.6766 5.3152 21.7882C7.42893 23.3641 10.0296 24.1441 12.6572 23.9903C15.0141 23.8523 17.2399 22.9941 19.1092 21.5025C19.567 21.1372 20.5838 20.1206 20.9332 19.6789C22.4123 17.8089 23.285 15.6567 23.5494 13.2269C23.6121 12.6505 23.6014 11.4016 23.5279 10.7081C23.3638 9.16076 22.9579 7.79732 22.2434 6.39402C20.7493 3.45936 18.1045 1.27688 15.0054 0.421186C14.283 0.221707 13.4454 0.0861309 12.6305 0.0367336C12.2496 0.0136788 11.9195 -0.00267714 11.8969 0.000363956C11.8743 0.00344615 11.6062 0.0211588 11.301 0.0397341ZM67.6024 3.8178C65.2314 4.07514 63.601 5.22867 63.0243 7.0569C62.8319 7.6666 62.7825 8.07291 62.806 8.85016C62.8307 9.66447 62.9272 10.1162 63.2014 10.7015C63.4196 11.1671 63.6582 11.4954 64.0456 11.8635C64.8365 12.6147 65.8668 13.0555 67.5613 13.3675C67.8664 13.4237 68.3657 13.516 68.6709 13.5727C70.4122 13.8959 71.0645 14.3262 71.2222 15.2558C71.3908 16.2494 70.8041 17.0266 69.6983 17.2742C69.2139 17.3827 68.3844 17.367 67.8869 17.2399C67.062 17.0291 66.4722 16.5969 66.0841 15.9187C65.9722 15.7229 65.7862 15.2256 65.7345 14.9837L65.7104 14.8707H64.0244H62.3384L62.359 15.0043C62.3703 15.0777 62.3904 15.2303 62.4037 15.3433C62.6486 17.431 63.8662 19.0166 65.7826 19.7432C66.1232 19.8724 66.9247 20.0668 67.3969 20.1349C67.8582 20.2015 69.2477 20.2018 69.7394 20.1355C70.9084 19.978 71.8834 19.6386 72.6712 19.1148C73.7302 18.4108 74.3984 17.307 74.5923 15.9411C74.6502 15.534 74.6184 14.6284 74.531 14.1926C74.2508 12.7953 73.3626 11.8004 71.8662 11.2072C71.2759 10.9732 70.4941 10.7827 69.2723 10.575C67.7853 10.3222 67.3737 10.2078 66.9306 9.92449C66.4568 9.6214 66.2137 9.19623 66.1752 8.60358C66.1267 7.8563 66.4717 7.22617 67.097 6.91997C67.5304 6.70779 67.9205 6.63928 68.5658 6.66201C69.4813 6.69431 69.9968 6.90258 70.5655 7.46995C70.9019 7.80546 71.1286 8.19965 71.2246 8.61554L71.274 8.82961H72.9725C74.2072 8.82961 74.6709 8.81695 74.6709 8.78317C74.6709 8.65775 74.4435 7.74645 74.3347 7.4356C73.6649 5.52254 72.1002 4.27832 69.8832 3.89572C69.315 3.79766 68.1534 3.75797 67.6024 3.8178ZM12.9817 4.04313C15.4279 4.38435 17.4119 6.04651 18.1555 8.37756C18.7097 10.1147 18.5639 12.2785 17.772 14.0691C17.6809 14.2751 17.6698 14.2844 17.4834 14.3099C17.3768 14.3245 17.1996 14.3365 17.0895 14.3365C16.8105 14.3365 16.1477 14.4415 15.7805 14.544C14.6586 14.8569 13.86 15.4461 13.3399 16.3445C12.9453 17.0263 12.6797 17.9914 12.5751 19.1241C12.5521 19.3728 12.5215 19.701 12.5071 19.8536L12.481 20.131H12.0435H11.6061L11.5368 19.4837C11.4484 18.6572 11.3203 17.9059 11.192 17.4608C10.7665 15.9842 9.93623 15.075 8.59704 14.6192C8.19356 14.4819 7.42325 14.3377 7.07435 14.3341C6.94662 14.3328 6.76995 14.3189 6.68172 14.3032C6.52399 14.2752 6.51832 14.2678 6.34362 13.8638C6.09113 13.2799 5.85651 12.5446 5.72604 11.9287C5.62243 11.4394 5.61352 11.3229 5.61146 10.4323C5.60969 9.65814 5.62354 9.40138 5.68128 9.13783C6.11361 7.16473 7.38454 5.50249 9.10239 4.66331C10.3055 4.0756 11.6609 3.85894 12.9817 4.04313ZM32.1303 4.02558C30.1169 4.18064 28.3772 5.15412 27.4006 6.67208C26.8057 7.59677 26.4493 8.77265 26.4167 9.91865L26.4038 10.3707L28.0516 10.3814L29.6995 10.3922L29.7249 10.0116C29.8088 8.75457 30.4778 7.71632 31.4872 7.27647C32.2704 6.93513 33.4455 7.01617 34.1092 7.45729C34.4377 7.6756 34.5892 7.82753 34.8064 8.15662C35.2363 8.80771 35.3572 9.7684 35.0937 10.4371C34.8216 11.1272 34.1424 11.729 32.9744 12.3147C31.6182 12.9947 28.7877 14.2014 27.0099 14.8576L26.5065 15.0433V17.3817V19.72H32.7325H38.9586V18.1378V16.5556L34.7154 16.5535L30.4723 16.5514L31.0476 16.354C32.584 15.8266 34.8327 14.8081 35.785 14.2081C37.1548 13.3451 37.9589 12.4094 38.3588 11.2131C38.5823 10.5445 38.6424 10.0876 38.6155 9.26112C38.5827 8.24888 38.4326 7.61251 38.0437 6.83646C37.8075 6.36501 37.5923 6.06439 37.199 5.65643C36.2731 4.6959 34.9423 4.1296 33.3567 4.02135C32.7174 3.97767 32.7542 3.97754 32.1303 4.02558ZM47.1777 4.02694C46.2304 4.1051 45.2214 4.36758 44.4334 4.74078C42.0581 5.86586 40.6157 7.95904 40.2283 10.8433C40.1566 11.3774 40.1694 12.688 40.2522 13.2942C40.4365 14.6433 40.9046 15.8715 41.6205 16.8844C41.9534 17.3553 42.7197 18.1395 43.1709 18.4709C44.0918 19.1473 45.2031 19.6254 46.3764 19.8499C47.0204 19.9731 48.4132 20.0026 49.0705 19.9069C50.7643 19.6603 52.0725 19.0265 53.1803 17.9157C53.7629 17.3315 54.1201 16.8318 54.4469 16.1435C54.9562 15.0707 55.1499 14.0555 55.1502 12.4563L55.1503 11.7063H51.349H47.5476V13.021V14.3357L49.6441 14.3464L51.7405 14.357L51.6023 14.6447C51.3355 15.2003 50.8711 15.7315 50.3316 16.0983C49.554 16.6269 48.3351 16.8854 47.2805 16.745C45.5736 16.518 44.4041 15.5469 43.8102 13.8639C43.4593 12.8695 43.42 11.4434 43.7138 10.3707C43.8207 9.98062 44.0439 9.45464 44.2527 9.10084C44.4785 8.7182 44.9915 8.15847 45.3529 7.90064C46.1468 7.33405 47.2695 7.06697 48.3827 7.17982C49.9072 7.33438 50.9436 8.03256 51.541 9.3076L51.7022 9.65153H53.429C55.0543 9.65153 55.1547 9.6473 55.1348 9.57961C55.1233 9.54008 55.0771 9.3505 55.0322 9.15838C54.4415 6.63016 52.5174 4.8078 49.7873 4.19083C49.061 4.02669 47.9933 3.95962 47.1777 4.02694ZM57.2462 12.0145V19.72H58.8695H60.4928V12.0145V4.30906H58.8695H57.2462V12.0145Z" fill="#29B24A"/>
</svg>
