<svg width="30" height="30" viewBox="0 0 30 30" fill="none" xmlns="http://www.w3.org/2000/svg">
<path d="M26.9969 25.7322C31.4201 20.6303 30.8773 12.9367 25.8869 8.47144C28.4502 17.4535 21.6723 26.4257 12.334 26.4257C12.1543 26.4257 13.2392 26.4321 8.96582 26.4057C11.3031 28.732 14.416 29.9999 17.6658 29.9999C17.6742 29.9999 29.1177 29.9414 29.1245 29.9414C29.9057 29.9376 30.2949 28.9869 29.7376 28.4368L26.9969 25.7322Z" fill="#FF005C"/>
<path d="M12.334 24.668C19.1346 24.668 24.6673 19.135 24.6673 12.334C24.6673 5.53301 19.1347 0 12.334 0C5.53331 0 0.000714692 5.53301 0.000714692 12.334C0.000714692 15.3281 1.06056 18.1598 3.00288 20.4002L0.262219 23.1049C-0.29325 23.6531 0.0915349 24.6056 0.875402 24.6094C0.881437 24.6094 12.328 24.668 12.334 24.668ZM7.09015 7.96875H17.6364C18.1218 7.96875 18.5153 8.36227 18.5153 8.84766C18.5153 9.33305 18.1218 9.72656 17.6364 9.72656H7.09015C6.60476 9.72656 6.2113 9.33305 6.2113 8.84766C6.2113 8.36227 6.60482 7.96875 7.09015 7.96875ZM7.09015 11.4844H17.6364C18.1218 11.4844 18.5153 11.8779 18.5153 12.3633C18.5153 12.8487 18.1218 13.2422 17.6364 13.2422H7.09015C6.60476 13.2422 6.2113 12.8487 6.2113 12.3633C6.2113 11.8779 6.60482 11.4844 7.09015 11.4844ZM6.2113 15.8789C6.2113 15.3935 6.60476 15 7.09015 15H17.6364C18.1218 15 18.5153 15.3935 18.5153 15.8789C18.5153 16.3643 18.1218 16.7578 17.6364 16.7578H7.09015C6.60482 16.7578 6.2113 16.3643 6.2113 15.8789Z" fill="#FF005C"/>
</svg>
