<svg width="24" height="23" viewBox="0 0 24 23" fill="none" xmlns="http://www.w3.org/2000/svg">
<path fill-rule="evenodd" clip-rule="evenodd" d="M23.0258 22.3764C24.4642 22.7892 22.6138 17.6604 22.6138 17.6604C23.4378 15.1964 24.2538 6.78439 23.7418 4.22039C23.2298 1.65559 21.3098 1.74439 17.7818 1.04279C14.1906 0.322788 5.15865 -0.0892121 3.19865 0.016388C1.25065 0.117988 -0.181352 1.44839 0.0186475 4.12039C0.224248 6.78439 3.34905 16.7124 4.89865 19.1764C6.44265 21.6404 8.72505 21.21 10.0866 21.0452C11.9538 20.8148 18.9826 19.1764 18.9826 19.1764C18.3538 18.3684 21.5875 21.9636 23.025 22.3764H23.0258ZM13.5986 6.87239L14.8498 4.21319H18.5938L14.501 12.0068V16.5988H10.205V12.0068L7.91705 7.64999L6.10665 4.21319H9.85065L12.3498 9.51319L13.5986 6.87239Z" fill="#ED484A"/>
</svg>
