<svg width="24" height="24" viewBox="0 0 24 24" fill="none" xmlns="http://www.w3.org/2000/svg">
<path d="M9.1697 6.99999C8.98345 7.18735 8.87891 7.4408 8.87891 7.70499C8.87891 7.96918 8.98345 8.22263 9.1697 8.40999L12.7097 12L9.1697 15.54C8.98345 15.7274 8.87891 15.9808 8.87891 16.245C8.87891 16.5092 8.98345 16.7626 9.1697 16.95C9.26266 17.0437 9.37326 17.1181 9.49512 17.1689C9.61698 17.2197 9.74769 17.2458 9.8797 17.2458C10.0117 17.2458 10.1424 17.2197 10.2643 17.1689C10.3861 17.1181 10.4967 17.0437 10.5897 16.95L14.8297 12.71C14.9234 12.617 14.9978 12.5064 15.0486 12.3846C15.0994 12.2627 15.1255 12.132 15.1255 12C15.1255 11.868 15.0994 11.7373 15.0486 11.6154C14.9978 11.4936 14.9234 11.383 14.8297 11.29L10.5897 6.99999C10.4967 6.90626 10.3861 6.83187 10.2643 6.7811C10.1424 6.73033 10.0117 6.70419 9.8797 6.70419C9.74769 6.70419 9.61698 6.73033 9.49512 6.7811C9.37326 6.83187 9.26266 6.90626 9.1697 6.99999Z" fill="#212121"/>
</svg>
